<svg width="176" height="135" viewBox="0 0 176 135" fill="none" xmlns="http://www.w3.org/2000/svg">
<rect x="143" y="102" width="31.75" height="31.75" rx="4" fill="#FFFA71" stroke="#1A1A2E" stroke-width="2"/>
<path d="M135 130C135 132.761 132.761 135 130 135H94.5041C94.217 135 94 134.743 94 134.456V45C94 42.2386 91.7614 40 89 40H41.5449C39.5874 40 38 41.5874 38 43.5449C38.0003 45.5021 39.5868 47.0886 41.5439 47.0889H81.9111C84.6726 47.0889 86.9111 49.3274 86.9111 52.0889V134.456C86.9112 134.743 86.6941 135 86.407 135H5C2.23858 135 0 132.761 0 130V97.5861C0 96.0531 0.682818 94.4434 2.19112 94.1694C2.48233 94.1165 2.78236 94.0889 3.08887 94.0889H43.4561C45.4132 94.0886 46.9997 92.5021 47 90.5449C47 88.5875 45.4134 87.0003 43.4561 87H5C2.23858 87 0 84.7614 0 82V5C0 2.23858 2.23858 0 5 0H130C132.761 0 135 2.23858 135 5V130Z" fill="#1A1A2E"/>
</svg>
